STARTFONT 2.1
COMMENT
COMMENT Converted from OpenType font "truongsa_regular.ttf" by "otf2bdf 3.0".
COMMENT
FONT -FreeType-VPS Truong Sa Light Hoa-Medium-R-Normal--19-140-100-100-P-99-ISO10646-1
SIZE 14 100 100
FONTBOUNDINGBOX 18 27 0 -5
STARTPROPERTIES 19
FOUNDRY "FreeType"
FAMILY_NAME "VPS Truong Sa Light Hoa"
WEIGHT_NAME "Medium"
SLANT "R"
SETWIDTH_NAME "Normal"
ADD_STYLE_NAME ""
PIXEL_SIZE 19
POINT_SIZE 140
RESOLUTION_X 100
RESOLUTION_Y 100
SPACING "P"
AVERAGE_WIDTH 99
CHARSET_REGISTRY "ISO10646"
CHARSET_ENCODING "1"
FONT_ASCENT 18
FONT_DESCENT 4
COPYRIGHT "VPS Font"
_OTF_FONTFILE "truongsa_regular.ttf"
_OTF_PSNAME "VPS Truong Sa Light Hoa"
ENDPROPERTIES
CHARS 270
STARTCHAR 0002
ENCODING 2
SWIDTH 617 0
DWIDTH 12 0
BBX 13 17 0 -3
BITMAP
0200
0700
0F00
0980
0980
10C0
10C0
3040
3FE0
2060
6020
4030
4030
E078
0000
0600
0600
ENDCHAR
STARTCHAR 0003
ENCODING 3
SWIDTH 617 0
DWIDTH 12 0
BBX 13 22 0 -3
BITMAP
0200
0700
0900
0080
0000
0200
0700
0F00
0980
0980
10C0
10C0
3040
3FE0
2060
6020
4030
4030
E078
0000
0600
0600
ENDCHAR
STARTCHAR 0004
ENCODING 4
SWIDTH 617 0
DWIDTH 12 0
BBX 13 21 0 -3
BITMAP
0080
0F00
0600
0000
0200
0700
0F00
0980
0980
10C0
10C0
3040
3FE0
2060
6020
4030
4030
E078
0000
0600
0600
ENDCHAR
STARTCHAR 0005
ENCODING 5
SWIDTH 565 0
DWIDTH 11 0
BBX 11 17 1 -3
BITMAP
FFC0
6040
4000
4000
4000
4080
7F80
4000
4000
4000
4000
4020
6060
FFC0
0000
0C00
0C00
ENDCHAR
STARTCHAR 0006
ENCODING 6
SWIDTH 565 0
DWIDTH 11 0
BBX 11 22 1 -3
BITMAP
0400
0E00
1200
0100
0000
FFC0
6040
4000
4000
4000
4080
7F80
4000
4000
4000
4000
4020
6060
FFC0
0000
0400
0C00
ENDCHAR
STARTCHAR 0015
ENCODING 21
SWIDTH 668 0
DWIDTH 13 0
BBX 13 21 1 -3
BITMAP
0010
0008
0008
0018
F0F0
4020
C020
C020
C020
C020
C020
C020
C020
C020
C020
6060
60C0
3F80
0000
0400
0600
ENDCHAR
STARTCHAR 0019
ENCODING 25
SWIDTH 617 0
DWIDTH 12 0
BBX 13 17 0 -3
BITMAP
F078
6030
6020
3060
1840
1880
0D00
0700
0600
0200
0200
0200
0600
0F00
0000
0200
0200
ENDCHAR
STARTCHAR 001C
ENCODING 28
SWIDTH 617 0
DWIDTH 12 0
BBX 13 21 0 0
BITMAP
0E80
1300
0200
0700
0900
0080
0000
0200
0700
0F00
0980
0980
10C0
10C0
3040
3FE0
2060
6020
4030
4030
E078
ENDCHAR
STARTCHAR 001D
ENCODING 29
SWIDTH 668 0
DWIDTH 13 0
BBX 13 21 1 0
BITMAP
0F80
0100
0000
0010
0008
0008
0018
F0F0
4020
C020
C020
C020
C020
C020
C020
C020
C020
C020
6060
60C0
3F80
ENDCHAR
STARTCHAR 0020
ENCODING 32
SWIDTH 257 0
DWIDTH 5 0
BBX 0 0 0 0
BITMAP
ENDCHAR
STARTCHAR 0021
ENCODING 33
SWIDTH 257 0
DWIDTH 5 0
BBX 2 14 2 0
BITMAP
C0
C0
80
80
80
80
80
80
80
80
00
00
80
C0
ENDCHAR
STARTCHAR 0022
ENCODING 34
SWIDTH 308 0
DWIDTH 6 0
BBX 5 6 1 8
BITMAP
90
98
90
90
90
80
ENDCHAR
STARTCHAR 0023
ENCODING 35
SWIDTH 720 0
DWIDTH 14 0
BBX 13 14 1 0
BITMAP
0320
0220
0220
0440
0440
7FF8
0880
0880
FFF0
FFE0
1100
3300
2200
2200
ENDCHAR
STARTCHAR 0024
ENCODING 36
SWIDTH 514 0
DWIDTH 10 0
BBX 9 18 1 -2
BITMAP
0800
0800
3E00
4B00
C900
C800
4800
7800
3E00
0F00
0B00
0980
8980
8900
4B00
3E00
0800
0800
ENDCHAR
STARTCHAR 0025
ENCODING 37
SWIDTH 822 0
DWIDTH 16 0
BBX 15 14 1 1
BITMAP
7E30
47E0
C220
C240
4240
6480
1900
0118
0264
02C6
04C6
04C6
0846
187C
ENDCHAR
STARTCHAR 0026
ENCODING 38
SWIDTH 720 0
DWIDTH 14 0
BBX 13 14 1 0
BITMAP
3E00
2100
6100
6100
2200
3C00
3878
6C20
CC20
8640
83C0
8180
C3C0
7E78
ENDCHAR
STARTCHAR 0027
ENCODING 39
SWIDTH 154 0
DWIDTH 3 0
BBX 1 6 1 8
BITMAP
80
80
80
80
80
80
ENDCHAR
STARTCHAR 0028
ENCODING 40
SWIDTH 308 0
DWIDTH 6 0
BBX 3 17 2 -3
BITMAP
20
40
40
C0
80
80
80
80
80
80
80
80
80
C0
40
40
20
ENDCHAR
STARTCHAR 0029
ENCODING 41
SWIDTH 308 0
DWIDTH 6 0
BBX 4 17 1 -3
BITMAP
40
40
60
20
20
20
30
30
30
30
30
20
20
20
60
40
C0
ENDCHAR
STARTCHAR 002A
ENCODING 42
SWIDTH 462 0
DWIDTH 9 0
BBX 7 7 1 6
BITMAP
18
D2
F6
18
FE
D2
18
ENDCHAR
STARTCHAR 002B
ENCODING 43
SWIDTH 822 0
DWIDTH 16 0
BBX 12 12 2 0
BITMAP
0200
0200
0200
0200
0200
0200
FFF0
0200
0200
0200
0200
0200
ENDCHAR
STARTCHAR 002C
ENCODING 44
SWIDTH 257 0
DWIDTH 5 0
BBX 3 5 1 -3
BITMAP
40
E0
20
40
40
ENDCHAR
STARTCHAR 002D
ENCODING 45
SWIDTH 308 0
DWIDTH 6 0
BBX 5 1 1 4
BITMAP
F8
ENDCHAR
STARTCHAR 002E
ENCODING 46
SWIDTH 257 0
DWIDTH 5 0
BBX 2 2 2 0
BITMAP
80
C0
ENDCHAR
STARTCHAR 002F
ENCODING 47
SWIDTH 257 0
DWIDTH 5 0
BBX 5 15 0 -2
BITMAP
08
08
10
10
10
20
20
20
20
40
40
40
80
80
80
ENDCHAR
STARTCHAR 0030
ENCODING 48
SWIDTH 514 0
DWIDTH 10 0
BBX 9 14 1 0
BITMAP
3E00
4300
C100
C180
C180
8180
8180
8180
8180
C180
C180
C100
4300
3E00
ENDCHAR
STARTCHAR 0031
ENCODING 49
SWIDTH 514 0
DWIDTH 10 0
BBX 7 14 2 0
BITMAP
10
F0
10
10
10
10
10
10
10
10
10
10
38
FE
ENDCHAR
STARTCHAR 0032
ENCODING 50
SWIDTH 514 0
DWIDTH 10 0
BBX 10 14 0 0
BITMAP
3F00
6180
40C0
60C0
6180
0180
0300
0600
0C00
1800
3000
6040
7F80
FF80
ENDCHAR
STARTCHAR 0033
ENCODING 51
SWIDTH 514 0
DWIDTH 10 0
BBX 10 14 0 0
BITMAP
3F00
6180
6180
0180
0180
0300
1E00
0180
0180
00C0
C0C0
C080
C180
7F00
ENDCHAR
STARTCHAR 0034
ENCODING 52
SWIDTH 514 0
DWIDTH 10 0
BBX 10 14 0 0
BITMAP
0300
0700
0B00
1B00
3300
2300
6300
4300
C300
FFC0
0300
0300
0300
0780
ENDCHAR
STARTCHAR 0035
ENCODING 53
SWIDTH 514 0
DWIDTH 10 0
BBX 10 14 0 0
BITMAP
3F80
3C00
2000
2000
2000
6E00
7380
00C0
00C0
00C0
40C0
C080
4180
3F00
ENDCHAR
STARTCHAR 0036
ENCODING 54
SWIDTH 514 0
DWIDTH 10 0
BBX 9 14 1 0
BITMAP
0F00
1800
2000
6000
C000
CC00
F700
C180
8180
8180
C180
C180
6100
3E00
ENDCHAR
STARTCHAR 0037
ENCODING 55
SWIDTH 514 0
DWIDTH 10 0
BBX 9 14 1 0
BITMAP
FF80
C180
8100
0100
0200
0200
0600
0400
0C00
0C00
1800
1800
1800
3000
ENDCHAR
STARTCHAR 0038
ENCODING 56
SWIDTH 514 0
DWIDTH 10 0
BBX 10 14 0 0
BITMAP
1F00
2080
40C0
4080
6080
3B00
1F00
1780
61C0
40C0
C040
40C0
6080
3F00
ENDCHAR
STARTCHAR 0039
ENCODING 57
SWIDTH 514 0
DWIDTH 10 0
BBX 9 14 1 0
BITMAP
7E00
C300
C180
8180
8180
8180
C180
7780
3980
0100
0300
0600
0C00
7000
ENDCHAR
STARTCHAR 003A
ENCODING 58
SWIDTH 257 0
DWIDTH 5 0
BBX 2 9 2 0
BITMAP
80
C0
00
00
00
00
00
80
C0
ENDCHAR
STARTCHAR 003B
ENCODING 59
SWIDTH 257 0
DWIDTH 5 0
BBX 3 12 1 -3
BITMAP
40
E0
40
00
00
00
00
40
E0
20
40
40
ENDCHAR
STARTCHAR 003C
ENCODING 60
SWIDTH 822 0
DWIDTH 16 0
BBX 12 10 2 1
BITMAP
0010
00E0
0380
1C00
7000
E000
3800
0700
01C0
0030
ENDCHAR
STARTCHAR 003D
ENCODING 61
SWIDTH 822 0
DWIDTH 16 0
BBX 12 5 2 3
BITMAP
FFF0
0000
0000
FFF0
FFF0
ENDCHAR
STARTCHAR 003E
ENCODING 62
SWIDTH 822 0
DWIDTH 16 0
BBX 12 10 2 1
BITMAP
8000
7000
1C00
0380
00E0
0070
01C0
0E00
3800
C000
ENDCHAR
STARTCHAR 003F
ENCODING 63
SWIDTH 411 0
DWIDTH 8 0
BBX 7 14 1 0
BITMAP
FC
84
86
06
06
04
1C
30
20
20
00
00
20
60
ENDCHAR
STARTCHAR 0040
ENCODING 64
SWIDTH 977 0
DWIDTH 19 0
BBX 17 17 1 -3
BITMAP
01F000
060C00
180200
200100
204100
41A880
421880
C61080
C41080
843100
443100
447200
439C00
200000
100000
0C0600
03F800
ENDCHAR
STARTCHAR 0041
ENCODING 65
SWIDTH 617 0
DWIDTH 12 0
BBX 13 14 0 0
BITMAP
0200
0700
0F00
0980
0980
10C0
10C0
3040
3FE0
2060
6020
4030
4030
E078
ENDCHAR
STARTCHAR 0042
ENCODING 66
SWIDTH 617 0
DWIDTH 12 0
BBX 11 14 1 0
BITMAP
FF80
60C0
40C0
4040
40C0
4180
4F00
70C0
4060
4060
4060
4060
60E0
FF80
ENDCHAR
STARTCHAR 0043
ENCODING 67
SWIDTH 668 0
DWIDTH 13 0
BBX 12 14 1 0
BITMAP
1FE0
3060
6030
C010
C000
C000
C000
C000
C000
C000
C000
6010
3060
1FC0
ENDCHAR
STARTCHAR 0044
ENCODING 68
SWIDTH 720 0
DWIDTH 14 0
BBX 12 14 1 0
BITMAP
FF00
61C0
4060
4030
4030
4030
4030
4030
4030
4030
4030
6060
61C0
FF00
ENDCHAR
STARTCHAR 0045
ENCODING 69
SWIDTH 565 0
DWIDTH 11 0
BBX 11 14 1 0
BITMAP
FFC0
6040
4000
4000
4000
4080
7F80
4000
4000
4000
4000
4020
6060
FFC0
ENDCHAR
STARTCHAR 0046
ENCODING 70
SWIDTH 514 0
DWIDTH 10 0
BBX 11 14 0 0
BITMAP
7FE0
3060
2000
2000
2000
2000
3F80
2080
2000
2000
2000
2000
3000
F800
ENDCHAR
STARTCHAR 0047
ENCODING 71
SWIDTH 771 0
DWIDTH 15 0
BBX 13 14 1 0
BITMAP
0FE0
3030
6010
6010
C000
C000
C000
C0F8
C018
C018
C018
6018
3038
1FE0
ENDCHAR
STARTCHAR 0048
ENCODING 72
SWIDTH 720 0
DWIDTH 14 0
BBX 13 14 1 0
BITMAP
F078
6030
4010
4010
4010
4010
7FF0
4010
4010
4010
4010
4010
6030
F078
ENDCHAR
STARTCHAR 0049
ENCODING 73
SWIDTH 257 0
DWIDTH 5 0
BBX 4 14 1 0
BITMAP
F0
60
60
60
60
60
60
60
60
60
60
60
60
F0
ENDCHAR
STARTCHAR 004A
ENCODING 74
SWIDTH 411 0
DWIDTH 8 0
BBX 8 14 0 0
BITMAP
0F
06
02
02
02
02
02
02
02
62
C2
86
86
7C
ENDCHAR
STARTCHAR 004B
ENCODING 75
SWIDTH 617 0
DWIDTH 12 0
BBX 12 14 1 0
BITMAP
F1E0
60C0
4180
4300
4600
4C00
5E00
7700
6300
4180
40C0
40C0
6060
F0F0
ENDCHAR
STARTCHAR 004C
ENCODING 76
SWIDTH 565 0
DWIDTH 11 0
BBX 10 14 1 0
BITMAP
F000
6000
4000
4000
4000
4000
4000
4000
4000
4000
4000
4000
60C0
FFC0
ENDCHAR
STARTCHAR 004D
ENCODING 77
SWIDTH 822 0
DWIDTH 16 0
BBX 16 14 0 0
BITMAP
F00F
380C
381C
281C
2C3C
2C24
2664
2644
22C4
2384
2184
2104
6004
F01F
ENDCHAR
STARTCHAR 004E
ENCODING 78
SWIDTH 720 0
DWIDTH 14 0
BBX 14 14 0 0
BITMAP
F03C
3818
3C18
2C18
2618
2318
2198
2198
20D8
2078
2078
2038
6018
F818
ENDCHAR
STARTCHAR 004F
ENCODING 79
SWIDTH 720 0
DWIDTH 14 0
BBX 13 14 1 0
BITMAP
1FC0
3060
6030
C018
C018
C018
C018
C018
C018
C018
C018
6030
3060
1FC0
ENDCHAR
STARTCHAR 0050
ENCODING 80
SWIDTH 565 0
DWIDTH 11 0
BBX 10 14 1 0
BITMAP
FF00
61C0
40C0
4040
40C0
40C0
4180
7F00
6000
4000
4000
4000
6000
F000
ENDCHAR
STARTCHAR 0051
ENCODING 81
SWIDTH 720 0
DWIDTH 14 0
BBX 13 17 1 -3
BITMAP
1FC0
3060
6030
C018
C018
C018
C018
C018
C018
C018
C218
6230
3260
1FC0
0180
00F8
0038
ENDCHAR
STARTCHAR 0052
ENCODING 82
SWIDTH 617 0
DWIDTH 12 0
BBX 12 14 1 0
BITMAP
FF80
61C0
40E0
4060
40C0
41C0
4700
7B00
4300
4180
40C0
40C0
60E0
F1F0
ENDCHAR
STARTCHAR 0053
ENCODING 83
SWIDTH 565 0
DWIDTH 11 0
BBX 11 14 0 0
BITMAP
3F80
60C0
4040
4000
6000
7800
3F80
07C0
00E0
0060
8060
C040
60C0
3F80
ENDCHAR
STARTCHAR 0054
ENCODING 84
SWIDTH 565 0
DWIDTH 11 0
BBX 11 14 0 0
BITMAP
FFE0
C620
8600
0600
0600
0600
0600
0600
0600
0600
0600
0600
0600
0F00
ENDCHAR
STARTCHAR 0055
ENCODING 85
SWIDTH 668 0
DWIDTH 13 0
BBX 12 14 1 0
BITMAP
F0F0
4020
C020
C020
C020
C020
C020
C020
C020
C020
C020
6060
60C0
3F80
ENDCHAR
STARTCHAR 0056
ENCODING 86
SWIDTH 617 0
DWIDTH 12 0
BBX 13 14 0 0
BITMAP
F078
6030
6030
6020
6020
2060
3040
3040
18C0
1880
0D80
0D00
0700
0600
ENDCHAR
STARTCHAR 0057
ENCODING 87
SWIDTH 925 0
DWIDTH 18 0
BBX 18 14 0 0
BITMAP
F1E3C0
60C080
60C080
60C180
60C100
20E100
316100
312300
313200
123200
1A1600
1E1C00
0C1C00
0C0C00
ENDCHAR
STARTCHAR 0058
ENCODING 88
SWIDTH 617 0
DWIDTH 12 0
BBX 13 14 0 0
BITMAP
F0F0
7060
3040
1880
1980
0D00
0600
0700
0D80
08C0
10C0
3060
2070
F078
ENDCHAR
STARTCHAR 0059
ENCODING 89
SWIDTH 617 0
DWIDTH 12 0
BBX 13 14 0 0
BITMAP
F078
6030
6020
3060
1840
1880
0D00
0700
0600
0200
0200
0200
0600
0F00
ENDCHAR
STARTCHAR 005A
ENCODING 90
SWIDTH 514 0
DWIDTH 10 0
BBX 10 14 0 0
BITMAP
7FC0
60C0
4180
0180
0300
0600
0600
0C00
1800
3000
3000
6000
E0C0
FFC0
ENDCHAR
STARTCHAR 005B
ENCODING 91
SWIDTH 308 0
DWIDTH 6 0
BBX 3 17 2 -3
BITMAP
E0
80
80
80
80
80
80
80
80
80
80
80
80
80
80
80
E0
ENDCHAR
STARTCHAR 005C
ENCODING 92
SWIDTH 257 0
DWIDTH 5 0
BBX 5 16 0 -2
BITMAP
80
80
80
80
40
40
40
20
20
20
10
10
10
08
08
08
ENDCHAR
STARTCHAR 005D
ENCODING 93
SWIDTH 308 0
DWIDTH 6 0
BBX 3 17 1 -3
BITMAP
E0
20
20
20
20
20
20
20
20
20
20
20
20
20
20
20
E0
ENDCHAR
STARTCHAR 005E
ENCODING 94
SWIDTH 977 0
DWIDTH 19 0
BBX 11 5 4 9
BITMAP
0600
0F00
1180
20C0
C060
ENDCHAR
STARTCHAR 005F
ENCODING 95
SWIDTH 462 0
DWIDTH 9 0
BBX 10 2 0 -5
BITMAP
FFC0
FFC0
ENDCHAR
STARTCHAR 0060
ENCODING 96
SWIDTH 462 0
DWIDTH 9 0
BBX 4 4 2 10
BITMAP
80
C0
20
10
ENDCHAR
STARTCHAR 0061
ENCODING 97
SWIDTH 617 0
DWIDTH 12 0
BBX 13 14 0 0
BITMAP
0200
0700
0F00
0980
0980
10C0
10C0
3040
3FE0
2060
6020
4030
4030
E078
ENDCHAR
STARTCHAR 0062
ENCODING 98
SWIDTH 617 0
DWIDTH 12 0
BBX 11 14 1 0
BITMAP
FF80
60C0
40C0
4040
40C0
4180
4F00
70C0
4060
4060
4060
4060
60E0
FF80
ENDCHAR
STARTCHAR 0063
ENCODING 99
SWIDTH 668 0
DWIDTH 13 0
BBX 12 14 1 0
BITMAP
1FE0
3060
6030
C010
C000
C000
C000
C000
C000
C000
C000
6010
3060
1FC0
ENDCHAR
STARTCHAR 0064
ENCODING 100
SWIDTH 720 0
DWIDTH 14 0
BBX 12 14 1 0
BITMAP
FF00
61C0
4060
4030
4030
4030
4030
4030
4030
4030
4030
6060
61C0
FF00
ENDCHAR
STARTCHAR 0065
ENCODING 101
SWIDTH 565 0
DWIDTH 11 0
BBX 11 14 1 0
BITMAP
FFC0
6040
4000
4000
4000
4080
7F80
4000
4000
4000
4000
4020
6060
FFC0
ENDCHAR
STARTCHAR 0066
ENCODING 102
SWIDTH 514 0
DWIDTH 10 0
BBX 11 14 0 0
BITMAP
7FE0
3060
2000
2000
2000
2000
3F80
2080
2000
2000
2000
2000
3000
F800
ENDCHAR
STARTCHAR 0067
ENCODING 103
SWIDTH 771 0
DWIDTH 15 0
BBX 13 14 1 0
BITMAP
0FE0
3030
6010
6010
C000
C000
C000
C0F8
C018
C018
C018
6018
3038
1FE0
ENDCHAR
STARTCHAR 0068
ENCODING 104
SWIDTH 720 0
DWIDTH 14 0
BBX 13 14 1 0
BITMAP
F078
6030
4010
4010
4010
4010
7FF0
4010
4010
4010
4010
4010
6030
F078
ENDCHAR
STARTCHAR 0069
ENCODING 105
SWIDTH 257 0
DWIDTH 5 0
BBX 4 14 1 0
BITMAP
F0
60
60
60
60
60
60
60
60
60
60
60
60
F0
ENDCHAR
STARTCHAR 006A
ENCODING 106
SWIDTH 411 0
DWIDTH 8 0
BBX 8 14 0 0
BITMAP
0F
06
02
02
02
02
02
02
02
62
C2
86
86
7C
ENDCHAR
STARTCHAR 006B
ENCODING 107
SWIDTH 617 0
DWIDTH 12 0
BBX 12 14 1 0
BITMAP
F1E0
60C0
4180
4300
4600
4C00
5E00
7700
6300
4180
40C0
40C0
6060
F0F0
ENDCHAR
STARTCHAR 006C
ENCODING 108
SWIDTH 565 0
DWIDTH 11 0
BBX 10 14 1 0
BITMAP
F000
6000
4000
4000
4000
4000
4000
4000
4000
4000
4000
4000
60C0
FFC0
ENDCHAR
STARTCHAR 006D
ENCODING 109
SWIDTH 822 0
DWIDTH 16 0
BBX 16 14 0 0
BITMAP
F00F
380C
381C
281C
2C3C
2C24
2664
2644
22C4
2384
2184
2104
6004
F01F
ENDCHAR
STARTCHAR 006E
ENCODING 110
SWIDTH 720 0
DWIDTH 14 0
BBX 14 14 0 0
BITMAP
F03C
3818
3C18
2C18
2618
2318
2198
2198
20D8
2078
2078
2038
6018
F818
ENDCHAR
STARTCHAR 006F
ENCODING 111
SWIDTH 720 0
DWIDTH 14 0
BBX 13 14 1 0
BITMAP
1FC0
3060
6030
C018
C018
C018
C018
C018
C018
C018
C018
6030
3060
1FC0
ENDCHAR
STARTCHAR 0070
ENCODING 112
SWIDTH 565 0
DWIDTH 11 0
BBX 10 14 1 0
BITMAP
FF00
61C0
40C0
4040
40C0
40C0
4180
7F00
6000
4000
4000
4000
6000
F000
ENDCHAR
STARTCHAR 0071
ENCODING 113
SWIDTH 720 0
DWIDTH 14 0
BBX 13 17 1 -3
BITMAP
1FC0
3060
6030
C018
C018
C018
C018
C018
C018
C018
C218
6230
3260
1FC0
0180
00F8
0038
ENDCHAR
STARTCHAR 0072
ENCODING 114
SWIDTH 617 0
DWIDTH 12 0
BBX 12 14 1 0
BITMAP
FF80
61C0
40E0
4060
40C0
41C0
4700
7B00
4300
4180
40C0
40C0
60E0
F1F0
ENDCHAR
STARTCHAR 0073
ENCODING 115
SWIDTH 565 0
DWIDTH 11 0
BBX 11 14 0 0
BITMAP
3F80
60C0
4040
4000
6000
7800
3F80
07C0
00E0
0060
8060
C040
60C0
3F80
ENDCHAR
STARTCHAR 0074
ENCODING 116
SWIDTH 565 0
DWIDTH 11 0
BBX 11 14 0 0
BITMAP
FFE0
C620
8600
0600
0600
0600
0600
0600
0600
0600
0600
0600
0600
0F00
ENDCHAR
STARTCHAR 0075
ENCODING 117
SWIDTH 668 0
DWIDTH 13 0
BBX 12 14 1 0
BITMAP
F0F0
4020
C020
C020
C020
C020
C020
C020
C020
C020
C020
6060
60C0
3F80
ENDCHAR
STARTCHAR 0076
ENCODING 118
SWIDTH 617 0
DWIDTH 12 0
BBX 13 14 0 0
BITMAP
F078
6030
6030
6020
6020
2060
3040
3040
18C0
1880
0D80
0D00
0700
0600
ENDCHAR
STARTCHAR 0077
ENCODING 119
SWIDTH 925 0
DWIDTH 18 0
BBX 18 14 0 0
BITMAP
F1E3C0
60C080
60C080
60C180
60C100
20E100
316100
312300
313200
123200
1A1600
1E1C00
0C1C00
0C0C00
ENDCHAR
STARTCHAR 0078
ENCODING 120
SWIDTH 617 0
DWIDTH 12 0
BBX 13 14 0 0
BITMAP
F0F0
7060
3040
1880
1980
0D00
0600
0700
0D80
08C0
10C0
3060
2070
F078
ENDCHAR
STARTCHAR 0079
ENCODING 121
SWIDTH 617 0
DWIDTH 12 0
BBX 13 14 0 0
BITMAP
F078
6030
6020
3060
1840
1880
0D00
0700
0600
0200
0200
0200
0600
0F00
ENDCHAR
STARTCHAR 007A
ENCODING 122
SWIDTH 514 0
DWIDTH 10 0
BBX 10 14 0 0
BITMAP
7FC0
60C0
4180
0180
0300
0600
0600
0C00
1800
3000
3000
6000
E0C0
FFC0
ENDCHAR
STARTCHAR 007B
ENCODING 123
SWIDTH 462 0
DWIDTH 9 0
BBX 5 16 2 -2
BITMAP
18
30
30
30
30
30
20
40
C0
20
30
30
30
30
30
18
ENDCHAR
STARTCHAR 007C
ENCODING 124
SWIDTH 462 0
DWIDTH 9 0
BBX 1 20 4 -5
BITMAP
80
80
80
80
80
80
80
80
80
80
80
80
80
80
80
80
80
80
80
80
ENDCHAR
STARTCHAR 007D
ENCODING 125
SWIDTH 462 0
DWIDTH 9 0
BBX 6 16 2 -2
BITMAP
E0
20
20
20
20
20
30
18
1C
30
20
20
20
20
20
E0
ENDCHAR
STARTCHAR 007E
ENCODING 126
SWIDTH 822 0
DWIDTH 16 0
BBX 13 2 2 4
BITMAP
7C18
C7F0
ENDCHAR
STARTCHAR 0080
ENCODING 128
SWIDTH 617 0
DWIDTH 12 0
BBX 13 19 0 0
BITMAP
0800
0C00
0200
0100
0000
0200
0700
0F00
0980
0980
10C0
10C0
3040
3FE0
2060
6020
4030
4030
E078
ENDCHAR
STARTCHAR 0081
ENCODING 129
SWIDTH 617 0
DWIDTH 12 0
BBX 13 20 0 0
BITMAP
0200
0500
0100
0200
0000
0000
0200
0700
0F00
0980
0980
10C0
10C0
3040
3FE0
2060
6020
4030
4030
E078
ENDCHAR
STARTCHAR 008D
ENCODING 141
SWIDTH 617 0
DWIDTH 12 0
BBX 13 21 0 0
BITMAP
00C0
0180
0200
0080
0F00
0600
0000
0200
0700
0F00
0980
0980
10C0
10C0
3040
3FE0
2060
6020
4030
4030
E078
ENDCHAR
STARTCHAR 008E
ENCODING 142
SWIDTH 617 0
DWIDTH 12 0
BBX 13 21 0 0
BITMAP
3000
0800
0400
0080
0F00
0600
0000
0200
0700
0F00
0980
0980
10C0
10C0
3040
3FE0
2060
6020
4030
4030
E078
ENDCHAR
STARTCHAR 008F
ENCODING 143
SWIDTH 617 0
DWIDTH 12 0
BBX 13 22 0 0
BITMAP
0700
0100
0100
0600
0080
0F00
0600
0000
0200
0700
0F00
0980
0980
10C0
10C0
3040
3FE0
2060
6020
4030
4030
E078
ENDCHAR
STARTCHAR 0090
ENCODING 144
SWIDTH 565 0
DWIDTH 11 0
BBX 12 21 1 0
BITMAP
0030
0060
0480
0E00
1200
0100
0000
FFC0
6040
4000
4000
4000
4080
7F80
4000
4000
4000
4000
4020
6060
FFC0
ENDCHAR
STARTCHAR 009D
ENCODING 157
SWIDTH 720 0
DWIDTH 14 0
BBX 13 20 1 0
BITMAP
00C0
0180
0300
0038
0010
0030
1FC0
3060
6030
C018
C018
C018
C018
C018
C018
C018
C018
6030
3060
1FC0
ENDCHAR
STARTCHAR 009E
ENCODING 158
SWIDTH 720 0
DWIDTH 14 0
BBX 13 20 1 0
BITMAP
0800
0C00
0200
0038
0010
0030
1FC0
3060
6030
C018
C018
C018
C018
C018
C018
C018
C018
6030
3060
1FC0
ENDCHAR
STARTCHAR 00A0
ENCODING 160
SWIDTH 514 0
DWIDTH 10 0
BBX 0 0 0 0
BITMAP
ENDCHAR
STARTCHAR 00A1
ENCODING 161
SWIDTH 617 0
DWIDTH 12 0
BBX 13 21 0 0
BITMAP
00C0
0180
0200
0080
0F00
0600
0000
0200
0700
0F00
0980
0980
10C0
10C0
3040
3FE0
2060
6020
4030
4030
E078
ENDCHAR
STARTCHAR 00A2
ENCODING 162
SWIDTH 617 0
DWIDTH 12 0
BBX 13 21 0 0
BITMAP
3000
0800
0400
0080
0F00
0600
0000
0200
0700
0F00
0980
0980
10C0
10C0
3040
3FE0
2060
6020
4030
4030
E078
ENDCHAR
STARTCHAR 00A3
ENCODING 163
SWIDTH 617 0
DWIDTH 12 0
BBX 13 22 0 0
BITMAP
0700
0100
0100
0600
0080
0F00
0600
0000
0200
0700
0F00
0980
0980
10C0
10C0
3040
3FE0
2060
6020
4030
4030
E078
ENDCHAR
STARTCHAR 00A4
ENCODING 164
SWIDTH 617 0
DWIDTH 12 0
BBX 13 21 0 0
BITMAP
0E80
1300
0000
0080
0F00
0600
0000
0200
0700
0F00
0980
0980
10C0
10C0
3040
3FE0
2060
6020
4030
4030
E078
ENDCHAR
STARTCHAR 00A5
ENCODING 165
SWIDTH 617 0
DWIDTH 12 0
BBX 13 21 0 -3
BITMAP
0080
0F00
0600
0000
0200
0700
0F00
0980
0980
10C0
10C0
3040
3FE0
2060
6020
4030
4030
E078
0000
0600
0600
ENDCHAR
STARTCHAR 00A6
ENCODING 166
SWIDTH 720 0
DWIDTH 14 0
BBX 13 21 1 0
BITMAP
0680
0B00
0000
0000
0038
0010
0030
1FC0
3060
6030
C018
C018
C018
C018
C018
C018
C018
C018
6030
3060
1FC0
ENDCHAR
STARTCHAR 00A7
ENCODING 167
SWIDTH 720 0
DWIDTH 14 0
BBX 13 20 1 0
BITMAP
00C0
0180
0300
0038
0010
0030
1FC0
3060
6030
C018
C018
C018
C018
C018
C018
C018
C018
6030
3060
1FC0
ENDCHAR
STARTCHAR 00A8
ENCODING 168
SWIDTH 668 0
DWIDTH 13 0
BBX 12 19 1 0
BITMAP
0800
0C00
0600
0100
0000
F0F0
4020
C020
C020
C020
C020
C020
C020
C020
C020
C020
6060
60C0
3F80
ENDCHAR
STARTCHAR 00A9
ENCODING 169
SWIDTH 720 0
DWIDTH 14 0
BBX 13 20 1 0
BITMAP
0800
0C00
0200
0038
0010
0030
1FC0
3060
6030
C018
C018
C018
C018
C018
C018
C018
C018
6030
3060
1FC0
ENDCHAR
STARTCHAR 00AA
ENCODING 170
SWIDTH 720 0
DWIDTH 14 0
BBX 13 21 1 0
BITMAP
0700
0100
0100
0200
0038
0010
0030
1FC0
3060
6030
C018
C018
C018
C018
C018
C018
C018
C018
6030
3060
1FC0
ENDCHAR
STARTCHAR 00AB
ENCODING 171
SWIDTH 720 0
DWIDTH 14 0
BBX 13 21 1 0
BITMAP
0680
0B00
0000
0000
0038
0010
0030
1FC0
3060
6030
C018
C018
C018
C018
C018
C018
C018
C018
6030
3060
1FC0
ENDCHAR
STARTCHAR 00AC
ENCODING 172
SWIDTH 668 0
DWIDTH 13 0
BBX 12 18 1 0
BITMAP
0680
0B80
0000
0000
F0F0
4020
C020
C020
C020
C020
C020
C020
C020
C020
C020
6060
60C0
3F80
ENDCHAR
STARTCHAR 00AD
ENCODING 173
SWIDTH 668 0
DWIDTH 13 0
BBX 13 20 1 0
BITMAP
00C0
0180
0210
0008
0008
0018
F0F0
4020
C020
C020
C020
C020
C020
C020
C020
C020
C020
6060
60C0
3F80
ENDCHAR
STARTCHAR 00AE
ENCODING 174
SWIDTH 720 0
DWIDTH 14 0
BBX 13 20 1 -2
BITMAP
0038
0010
0030
1FC0
3060
6030
C018
C018
C018
C018
C018
C018
C018
C018
6030
3060
1FC0
0000
0200
0300
ENDCHAR
STARTCHAR 00AF
ENCODING 175
SWIDTH 668 0
DWIDTH 13 0
BBX 13 20 1 0
BITMAP
1800
0C00
0610
0108
0008
0018
F0F0
4020
C020
C020
C020
C020
C020
C020
C020
C020
C020
6060
60C0
3F80
ENDCHAR
STARTCHAR 00B0
ENCODING 176
SWIDTH 720 0
DWIDTH 14 0
BBX 13 22 1 0
BITMAP
0060
0020
0020
0240
0740
0980
0000
0000
1FC0
3060
6030
C018
C018
C018
C018
C018
C018
C018
C018
6030
3060
1FC0
ENDCHAR
STARTCHAR 00B1
ENCODING 177
SWIDTH 668 0
DWIDTH 13 0
BBX 13 20 1 0
BITMAP
0700
0100
0110
0208
0008
0018
F0F0
4020
C020
C020
C020
C020
C020
C020
C020
C020
C020
6060
60C0
3F80
ENDCHAR
STARTCHAR 00B2
ENCODING 178
SWIDTH 617 0
DWIDTH 12 0
BBX 13 19 0 0
BITMAP
1000
1800
0400
0200
0000
F078
6030
6020
3060
1840
1880
0D00
0700
0600
0200
0200
0200
0600
0F00
ENDCHAR
STARTCHAR 00B3
ENCODING 179
SWIDTH 617 0
DWIDTH 12 0
BBX 13 18 0 0
BITMAP
0740
0980
0000
0000
F078
6030
6020
3060
1840
1880
0D00
0700
0600
0200
0200
0200
0600
0F00
ENDCHAR
STARTCHAR 00B4
ENCODING 180
SWIDTH 257 0
DWIDTH 5 0
BBX 4 19 1 0
BITMAP
10
30
40
80
00
F0
60
60
60
60
60
60
60
60
60
60
60
60
F0
ENDCHAR
STARTCHAR 00B5
ENCODING 181
SWIDTH 257 0
DWIDTH 5 0
BBX 5 19 0 0
BITMAP
80
C0
20
10
00
78
30
30
30
30
30
30
30
30
30
30
30
30
78
ENDCHAR
STARTCHAR 00B6
ENCODING 182
SWIDTH 720 0
DWIDTH 14 0
BBX 13 22 1 -3
BITMAP
0200
0700
0980
0000
0000
1FC0
3060
6030
C018
C018
C018
C018
C018
C018
C018
C018
6030
3060
1FC0
0000
0200
0300
ENDCHAR
STARTCHAR 00B8
ENCODING 184
SWIDTH 257 0
DWIDTH 5 0
BBX 5 17 0 1
BITMAP
F8
00
00
78
30
30
30
30
30
30
30
30
30
30
30
30
78
ENDCHAR
STARTCHAR 00B9
ENCODING 185
SWIDTH 720 0
DWIDTH 14 0
BBX 13 19 1 0
BITMAP
0080
0180
0200
0400
0000
1FC0
3060
6030
C018
C018
C018
C018
C018
C018
C018
C018
6030
3060
1FC0
ENDCHAR
STARTCHAR 00BA
ENCODING 186
SWIDTH 668 0
DWIDTH 13 0
BBX 13 20 1 0
BITMAP
0700
0100
0110
0208
0008
0018
F0F0
4020
C020
C020
C020
C020
C020
C020
C020
C020
C020
6060
60C0
3F80
ENDCHAR
STARTCHAR 00BB
ENCODING 187
SWIDTH 668 0
DWIDTH 13 0
BBX 13 21 1 0
BITMAP
0F80
0100
0000
0010
0008
0008
0018
F0F0
4020
C020
C020
C020
C020
C020
C020
C020
C020
C020
6060
60C0
3F80
ENDCHAR
STARTCHAR 00BC
ENCODING 188
SWIDTH 720 0
DWIDTH 14 0
BBX 13 19 1 0
BITMAP
0800
0C00
0200
0100
0000
1FC0
3060
6030
C018
C018
C018
C018
C018
C018
C018
C018
6030
3060
1FC0
ENDCHAR
STARTCHAR 00BD
ENCODING 189
SWIDTH 720 0
DWIDTH 14 0
BBX 13 20 1 0
BITMAP
0300
0500
0100
0200
0200
0000
1FC0
3060
6030
C018
C018
C018
C018
C018
C018
C018
C018
6030
3060
1FC0
ENDCHAR
STARTCHAR 00BE
ENCODING 190
SWIDTH 720 0
DWIDTH 14 0
BBX 13 18 1 0
BITMAP
0680
0B00
0000
0000
1FC0
3060
6030
C018
C018
C018
C018
C018
C018
C018
C018
6030
3060
1FC0
ENDCHAR
STARTCHAR 00BF
ENCODING 191
SWIDTH 668 0
DWIDTH 13 0
BBX 13 21 1 -3
BITMAP
0010
0008
0008
0018
F0F0
4020
C020
C020
C020
C020
C020
C020
C020
C020
C020
6060
60C0
3F80
0000
0600
0600
ENDCHAR
STARTCHAR 00C0
ENCODING 192
SWIDTH 617 0
DWIDTH 12 0
BBX 13 21 0 0
BITMAP
C000
6000
1200
0700
0900
0080
0000
0200
0700
0F00
0980
0980
10C0
10C0
3040
3FE0
2060
6020
4030
4030
E078
ENDCHAR
STARTCHAR 00C1
ENCODING 193
SWIDTH 617 0
DWIDTH 12 0
BBX 13 19 0 0
BITMAP
0080
0180
0200
0400
0000
0200
0700
0F00
0980
0980
10C0
10C0
3040
3FE0
2060
6020
4030
4030
E078
ENDCHAR
STARTCHAR 00C2
ENCODING 194
SWIDTH 617 0
DWIDTH 12 0
BBX 13 19 0 0
BITMAP
0200
0700
0900
0080
0000
0200
0700
0F00
0980
0980
10C0
10C0
3040
3FE0
2060
6020
4030
4030
E078
ENDCHAR
STARTCHAR 00C3
ENCODING 195
SWIDTH 617 0
DWIDTH 12 0
BBX 13 21 0 0
BITMAP
0018
0030
0260
0700
0900
0080
0000
0200
0700
0F00
0980
0980
10C0
10C0
3040
3FE0
2060
6020
4030
4030
E078
ENDCHAR
STARTCHAR 00C4
ENCODING 196
SWIDTH 617 0
DWIDTH 12 0
BBX 13 22 0 0
BITMAP
00E0
0020
0020
02C0
0700
0900
0080
0000
0200
0700
0F00
0980
0980
10C0
10C0
3040
3FE0
2060
6020
4030
4030
E078
ENDCHAR
STARTCHAR 00C5
ENCODING 197
SWIDTH 617 0
DWIDTH 12 0
BBX 13 21 0 0
BITMAP
0E80
1300
0200
0700
0900
0080
0000
0200
0700
0F00
0980
0980
10C0
10C0
3040
3FE0
2060
6020
4030
4030
E078
ENDCHAR
STARTCHAR 00C6
ENCODING 198
SWIDTH 617 0
DWIDTH 12 0
BBX 13 22 0 -3
BITMAP
0200
0700
0900
0080
0000
0200
0700
0F00
0980
0980
10C0
10C0
3040
3FE0
2060
6020
4030
4030
E078
0000
0600
0600
ENDCHAR
STARTCHAR 00C7
ENCODING 199
SWIDTH 720 0
DWIDTH 14 0
BBX 13 14 0 0
BITMAP
7F80
3060
3030
3018
3018
3018
FE18
3018
3018
3018
3018
3030
30E0
7F80
ENDCHAR
STARTCHAR 00C8
ENCODING 200
SWIDTH 565 0
DWIDTH 11 0
BBX 11 20 1 0
BITMAP
0400
0A00
0200
0400
0000
0000
FFC0
6040
4000
4000
4000
4080
7F80
4000
4000
4000
4000
4020
6060
FFC0
ENDCHAR
STARTCHAR 00C9
ENCODING 201
SWIDTH 565 0
DWIDTH 11 0
BBX 11 19 1 0
BITMAP
0100
0300
0400
0800
0000
FFC0
6040
4000
4000
4000
4080
7F80
4000
4000
4000
4000
4020
6060
FFC0
ENDCHAR
STARTCHAR 00CA
ENCODING 202
SWIDTH 565 0
DWIDTH 11 0
BBX 11 19 1 0
BITMAP
0400
0E00
1200
0100
0000
FFC0
6040
4000
4000
4000
4080
7F80
4000
4000
4000
4000
4020
6060
FFC0
ENDCHAR
STARTCHAR 00CB
ENCODING 203
SWIDTH 565 0
DWIDTH 11 0
BBX 11 17 1 -3
BITMAP
FFC0
6040
4000
4000
4000
4080
7F80
4000
4000
4000
4000
4020
6060
FFC0
0000
0C00
0C00
ENDCHAR
STARTCHAR 00CC
ENCODING 204
SWIDTH 257 0
DWIDTH 5 0
BBX 4 20 1 0
BITMAP
E0
20
20
40
00
00
F0
60
60
60
60
60
60
60
60
60
60
60
60
F0
ENDCHAR
STARTCHAR 00CD
ENCODING 205
SWIDTH 565 0
DWIDTH 11 0
BBX 11 21 1 0
BITMAP
1D00
2600
0400
0E00
1200
0100
0000
FFC0
6040
4000
4000
4000
4080
7F80
4000
4000
4000
4000
4020
6060
FFC0
ENDCHAR
STARTCHAR 00CE
ENCODING 206
SWIDTH 257 0
DWIDTH 5 0
BBX 4 17 1 -3
BITMAP
F0
60
60
60
60
60
60
60
60
60
60
60
60
F0
00
40
60
ENDCHAR
STARTCHAR 00CF
ENCODING 207
SWIDTH 617 0
DWIDTH 12 0
BBX 13 18 0 0
BITMAP
0740
0980
0000
0000
F078
6030
6020
3060
1840
1880
0D00
0700
0600
0200
0200
0200
0600
0F00
ENDCHAR
STARTCHAR 00D0
ENCODING 208
SWIDTH 668 0
DWIDTH 13 0
BBX 13 18 1 0
BITMAP
0010
0008
0008
0018
F0F0
4020
C020
C020
C020
C020
C020
C020
C020
C020
C020
6060
60C0
3F80
ENDCHAR
STARTCHAR 00D1
ENCODING 209
SWIDTH 668 0
DWIDTH 13 0
BBX 12 20 1 0
BITMAP
0300
0500
0100
0200
0000
0000
F0F0
4020
C020
C020
C020
C020
C020
C020
C020
C020
C020
6060
60C0
3F80
ENDCHAR
STARTCHAR 00D2
ENCODING 210
SWIDTH 720 0
DWIDTH 14 0
BBX 13 21 1 0
BITMAP
C000
6000
1200
0700
0980
0000
0000
1FC0
3060
6030
C018
C018
C018
C018
C018
C018
C018
C018
6030
3060
1FC0
ENDCHAR
STARTCHAR 00D3
ENCODING 211
SWIDTH 720 0
DWIDTH 14 0
BBX 13 21 1 0
BITMAP
0018
0030
0260
0700
0980
0000
0000
1FC0
3060
6030
C018
C018
C018
C018
C018
C018
C018
C018
6030
3060
1FC0
ENDCHAR
STARTCHAR 00D4
ENCODING 212
SWIDTH 720 0
DWIDTH 14 0
BBX 13 19 1 0
BITMAP
0200
0700
0980
0000
0000
1FC0
3060
6030
C018
C018
C018
C018
C018
C018
C018
C018
6030
3060
1FC0
ENDCHAR
STARTCHAR 00D5
ENCODING 213
SWIDTH 720 0
DWIDTH 14 0
BBX 13 20 1 0
BITMAP
0300
0500
0100
0200
0200
0000
1FC0
3060
6030
C018
C018
C018
C018
C018
C018
C018
C018
6030
3060
1FC0
ENDCHAR
STARTCHAR 00D6
ENCODING 214
SWIDTH 720 0
DWIDTH 14 0
BBX 13 17 1 1
BITMAP
0038
0010
0030
1FC0
3060
6030
C018
C018
C018
C018
C018
C018
C018
C018
6030
3060
1FC0
ENDCHAR
STARTCHAR 00D7
ENCODING 215
SWIDTH 565 0
DWIDTH 11 0
BBX 11 19 1 0
BITMAP
1000
1800
0400
0200
0000
FFC0
6040
4000
4000
4000
4080
7F80
4000
4000
4000
4000
4020
6060
FFC0
ENDCHAR
STARTCHAR 00D8
ENCODING 216
SWIDTH 668 0
DWIDTH 13 0
BBX 13 20 1 0
BITMAP
1800
0C00
0610
0108
0008
0018
F0F0
4020
C020
C020
C020
C020
C020
C020
C020
C020
C020
6060
60C0
3F80
ENDCHAR
STARTCHAR 00D9
ENCODING 217
SWIDTH 668 0
DWIDTH 13 0
BBX 13 20 1 0
BITMAP
00C0
0180
0210
0008
0008
0018
F0F0
4020
C020
C020
C020
C020
C020
C020
C020
C020
C020
6060
60C0
3F80
ENDCHAR
STARTCHAR 00DA
ENCODING 218
SWIDTH 668 0
DWIDTH 13 0
BBX 12 19 1 0
BITMAP
0180
0300
0200
0400
0000
F0F0
4020
C020
C020
C020
C020
C020
C020
C020
C020
C020
6060
60C0
3F80
ENDCHAR
STARTCHAR 00DB
ENCODING 219
SWIDTH 668 0
DWIDTH 13 0
BBX 12 18 1 0
BITMAP
0680
0B80
0000
0000
F0F0
4020
C020
C020
C020
C020
C020
C020
C020
C020
C020
6060
60C0
3F80
ENDCHAR
STARTCHAR 00DC
ENCODING 220
SWIDTH 668 0
DWIDTH 13 0
BBX 13 18 1 0
BITMAP
0010
0008
0008
0018
F0F0
4020
C020
C020
C020
C020
C020
C020
C020
C020
C020
6060
60C0
3F80
ENDCHAR
STARTCHAR 00DD
ENCODING 221
SWIDTH 617 0
DWIDTH 12 0
BBX 13 19 0 0
BITMAP
0080
0180
0200
0400
0000
F078
6030
6020
3060
1840
1880
0D00
0700
0600
0200
0200
0200
0600
0F00
ENDCHAR
STARTCHAR 00DE
ENCODING 222
SWIDTH 565 0
DWIDTH 11 0
BBX 11 20 1 0
BITMAP
0400
0A00
0200
0400
0000
0000
FFC0
6040
4000
4000
4000
4080
7F80
4000
4000
4000
4000
4020
6060
FFC0
ENDCHAR
STARTCHAR 00DF
ENCODING 223
SWIDTH 617 0
DWIDTH 12 0
BBX 12 14 0 0
BITMAP
1FC0
3060
2020
2020
2060
20C0
2FC0
2060
2030
2C30
2810
2830
2C60
F7C0
ENDCHAR
STARTCHAR 00E0
ENCODING 224
SWIDTH 617 0
DWIDTH 12 0
BBX 13 19 0 0
BITMAP
0800
0C00
0200
0100
0000
0200
0700
0F00
0980
0980
10C0
10C0
3040
3FE0
2060
6020
4030
4030
E078
ENDCHAR
STARTCHAR 00E1
ENCODING 225
SWIDTH 617 0
DWIDTH 12 0
BBX 13 19 0 0
BITMAP
0080
0180
0200
0400
0000
0200
0700
0F00
0980
0980
10C0
10C0
3040
3FE0
2060
6020
4030
4030
E078
ENDCHAR
STARTCHAR 00E2
ENCODING 226
SWIDTH 617 0
DWIDTH 12 0
BBX 13 19 0 0
BITMAP
0200
0700
0900
0080
0000
0200
0700
0F00
0980
0980
10C0
10C0
3040
3FE0
2060
6020
4030
4030
E078
ENDCHAR
STARTCHAR 00E3
ENCODING 227
SWIDTH 617 0
DWIDTH 12 0
BBX 13 18 0 0
BITMAP
0E80
1300
0000
0000
0200
0700
0F00
0980
0980
10C0
10C0
3040
3FE0
2060
6020
4030
4030
E078
ENDCHAR
STARTCHAR 00E4
ENCODING 228
SWIDTH 617 0
DWIDTH 12 0
BBX 13 20 0 0
BITMAP
0200
0500
0100
0200
0000
0000
0200
0700
0F00
0980
0980
10C0
10C0
3040
3FE0
2060
6020
4030
4030
E078
ENDCHAR
STARTCHAR 00E5
ENCODING 229
SWIDTH 617 0
DWIDTH 12 0
BBX 13 17 0 -3
BITMAP
0200
0700
0F00
0980
0980
10C0
10C0
3040
3FE0
2060
6020
4030
4030
E078
0000
0600
0600
ENDCHAR
STARTCHAR 00E6
ENCODING 230
SWIDTH 617 0
DWIDTH 12 0
BBX 13 18 0 0
BITMAP
0080
0F00
0600
0000
0200
0700
0F00
0980
0980
10C0
10C0
3040
3FE0
2060
6020
4030
4030
E078
ENDCHAR
STARTCHAR 00E7
ENCODING 231
SWIDTH 668 0
DWIDTH 13 0
BBX 12 18 1 -4
BITMAP
1FE0
3060
6030
C010
C000
C000
C000
C000
C000
C000
C000
6010
3060
1FC0
0200
0380
0080
0F80
ENDCHAR
STARTCHAR 00E8
ENCODING 232
SWIDTH 565 0
DWIDTH 11 0
BBX 11 19 1 0
BITMAP
1000
1800
0400
0200
0000
FFC0
6040
4000
4000
4000
4080
7F80
4000
4000
4000
4000
4020
6060
FFC0
ENDCHAR
STARTCHAR 00E9
ENCODING 233
SWIDTH 565 0
DWIDTH 11 0
BBX 11 19 1 0
BITMAP
0100
0300
0400
0800
0000
FFC0
6040
4000
4000
4000
4080
7F80
4000
4000
4000
4000
4020
6060
FFC0
ENDCHAR
STARTCHAR 00EA
ENCODING 234
SWIDTH 565 0
DWIDTH 11 0
BBX 11 19 1 0
BITMAP
0400
0E00
1200
0100
0000
FFC0
6040
4000
4000
4000
4080
7F80
4000
4000
4000
4000
4020
6060
FFC0
ENDCHAR
STARTCHAR 00EB
ENCODING 235
SWIDTH 565 0
DWIDTH 11 0
BBX 11 18 1 0
BITMAP
0100
3E00
2000
0000
FFC0
6040
4000
4000
4000
4080
7F80
4000
4000
4000
4000
4020
6060
FFC0
ENDCHAR
STARTCHAR 00EC
ENCODING 236
SWIDTH 257 0
DWIDTH 5 0
BBX 5 19 0 0
BITMAP
80
C0
20
10
00
78
30
30
30
30
30
30
30
30
30
30
30
30
78
ENDCHAR
STARTCHAR 00ED
ENCODING 237
SWIDTH 257 0
DWIDTH 5 0
BBX 4 19 1 0
BITMAP
10
30
40
80
00
F0
60
60
60
60
60
60
60
60
60
60
60
60
F0
ENDCHAR
STARTCHAR 00EE
ENCODING 238
SWIDTH 257 0
DWIDTH 5 0
BBX 5 19 0 0
BITMAP
20
70
48
80
00
78
30
30
30
30
30
30
30
30
30
30
30
30
78
ENDCHAR
STARTCHAR 00EF
ENCODING 239
SWIDTH 257 0
DWIDTH 5 0
BBX 5 17 0 1
BITMAP
F8
00
00
78
30
30
30
30
30
30
30
30
30
30
30
30
78
ENDCHAR
STARTCHAR 00F0
ENCODING 240
SWIDTH 617 0
DWIDTH 12 0
BBX 13 21 0 0
BITMAP
0E80
1300
0000
0080
0F00
0600
0000
0200
0700
0F00
0980
0980
10C0
10C0
3040
3FE0
2060
6020
4030
4030
E078
ENDCHAR
STARTCHAR 00F1
ENCODING 241
SWIDTH 720 0
DWIDTH 14 0
BBX 13 14 0 0
BITMAP
7F80
3060
3030
3018
3018
3018
FE18
3018
3018
3018
3018
3030
30E0
7F80
ENDCHAR
STARTCHAR 00F2
ENCODING 242
SWIDTH 720 0
DWIDTH 14 0
BBX 13 19 1 0
BITMAP
0800
0C00
0200
0100
0000
1FC0
3060
6030
C018
C018
C018
C018
C018
C018
C018
C018
6030
3060
1FC0
ENDCHAR
STARTCHAR 00F3
ENCODING 243
SWIDTH 720 0
DWIDTH 14 0
BBX 13 19 1 0
BITMAP
0080
0180
0200
0400
0000
1FC0
3060
6030
C018
C018
C018
C018
C018
C018
C018
C018
6030
3060
1FC0
ENDCHAR
STARTCHAR 00F4
ENCODING 244
SWIDTH 720 0
DWIDTH 14 0
BBX 13 19 1 0
BITMAP
0200
0700
0980
0000
0000
1FC0
3060
6030
C018
C018
C018
C018
C018
C018
C018
C018
6030
3060
1FC0
ENDCHAR
STARTCHAR 00F5
ENCODING 245
SWIDTH 720 0
DWIDTH 14 0
BBX 13 18 1 0
BITMAP
0680
0B00
0000
0000
1FC0
3060
6030
C018
C018
C018
C018
C018
C018
C018
C018
6030
3060
1FC0
ENDCHAR
STARTCHAR 00F6
ENCODING 246
SWIDTH 720 0
DWIDTH 14 0
BBX 13 18 1 0
BITMAP
0980
0D80
0000
0000
1FC0
3060
6030
C018
C018
C018
C018
C018
C018
C018
C018
6030
3060
1FC0
ENDCHAR
STARTCHAR 00F7
ENCODING 247
SWIDTH 720 0
DWIDTH 14 0
BBX 13 17 1 1
BITMAP
0038
0010
0030
1FC0
3060
6030
C018
C018
C018
C018
C018
C018
C018
C018
6030
3060
1FC0
ENDCHAR
STARTCHAR 00F8
ENCODING 248
SWIDTH 668 0
DWIDTH 13 0
BBX 12 17 1 -3
BITMAP
F0F0
4020
C020
C020
C020
C020
C020
C020
C020
C020
C020
6060
60C0
3F80
0000
0400
0600
ENDCHAR
STARTCHAR 00F9
ENCODING 249
SWIDTH 668 0
DWIDTH 13 0
BBX 12 19 1 0
BITMAP
0800
0C00
0600
0100
0000
F0F0
4020
C020
C020
C020
C020
C020
C020
C020
C020
C020
6060
60C0
3F80
ENDCHAR
STARTCHAR 00FA
ENCODING 250
SWIDTH 668 0
DWIDTH 13 0
BBX 12 19 1 0
BITMAP
0180
0300
0200
0400
0000
F0F0
4020
C020
C020
C020
C020
C020
C020
C020
C020
C020
6060
60C0
3F80
ENDCHAR
STARTCHAR 00FB
ENCODING 251
SWIDTH 668 0
DWIDTH 13 0
BBX 12 20 1 0
BITMAP
0300
0500
0100
0200
0000
0000
F0F0
4020
C020
C020
C020
C020
C020
C020
C020
C020
C020
6060
60C0
3F80
ENDCHAR
STARTCHAR 00FC
ENCODING 252
SWIDTH 668 0
DWIDTH 13 0
BBX 12 18 1 0
BITMAP
0900
0980
0000
0000
F0F0
4020
C020
C020
C020
C020
C020
C020
C020
C020
C020
6060
60C0
3F80
ENDCHAR
STARTCHAR 00FD
ENCODING 253
SWIDTH 617 0
DWIDTH 12 0
BBX 13 20 0 0
BITMAP
0200
0500
0100
0200
0000
0000
F078
6030
6020
3060
1840
1880
0D00
0700
0600
0200
0200
0200
0600
0F00
ENDCHAR
STARTCHAR 00FE
ENCODING 254
SWIDTH 565 0
DWIDTH 11 0
BBX 11 18 1 0
BITMAP
0100
3E00
2000
0000
FFC0
6040
4000
4000
4000
4080
7F80
4000
4000
4000
4000
4020
6060
FFC0
ENDCHAR
STARTCHAR 00FF
ENCODING 255
SWIDTH 617 0
DWIDTH 12 0
BBX 13 19 0 0
BITMAP
1000
1800
0400
0200
0000
F078
6030
6020
3060
1840
1880
0D00
0700
0600
0200
0200
0200
0600
0F00
ENDCHAR
STARTCHAR 0106
ENCODING 262
SWIDTH 668 0
DWIDTH 13 0
BBX 0 0 0 0
BITMAP
ENDCHAR
STARTCHAR 0107
ENCODING 263
SWIDTH 411 0
DWIDTH 8 0
BBX 0 0 0 0
BITMAP
ENDCHAR
STARTCHAR 010C
ENCODING 268
SWIDTH 668 0
DWIDTH 13 0
BBX 0 0 0 0
BITMAP
ENDCHAR
STARTCHAR 010D
ENCODING 269
SWIDTH 411 0
DWIDTH 8 0
BBX 0 0 0 0
BITMAP
ENDCHAR
STARTCHAR 0111
ENCODING 273
SWIDTH 514 0
DWIDTH 10 0
BBX 0 0 0 0
BITMAP
ENDCHAR
STARTCHAR 011E
ENCODING 286
SWIDTH 771 0
DWIDTH 15 0
BBX 0 0 0 0
BITMAP
ENDCHAR
STARTCHAR 011F
ENCODING 287
SWIDTH 462 0
DWIDTH 9 0
BBX 0 0 0 0
BITMAP
ENDCHAR
STARTCHAR 0130
ENCODING 304
SWIDTH 257 0
DWIDTH 5 0
BBX 0 0 0 0
BITMAP
ENDCHAR
STARTCHAR 0131
ENCODING 305
SWIDTH 205 0
DWIDTH 4 0
BBX 0 0 0 0
BITMAP
ENDCHAR
STARTCHAR 0141
ENCODING 321
SWIDTH 565 0
DWIDTH 11 0
BBX 0 0 0 0
BITMAP
ENDCHAR
STARTCHAR 0142
ENCODING 322
SWIDTH 205 0
DWIDTH 4 0
BBX 0 0 0 0
BITMAP
ENDCHAR
STARTCHAR 0152
ENCODING 338
SWIDTH 565 0
DWIDTH 11 0
BBX 11 22 1 -3
BITMAP
0400
0E00
1200
0100
0000
FFC0
6040
4000
4000
4000
4080
7F80
4000
4000
4000
4000
4020
6060
FFC0
0000
0400
0C00
ENDCHAR
STARTCHAR 0153
ENCODING 339
SWIDTH 617 0
DWIDTH 12 0
BBX 13 17 0 -3
BITMAP
F078
6030
6020
3060
1840
1880
0D00
0700
0600
0200
0200
0200
0600
0F00
0000
0200
0200
ENDCHAR
STARTCHAR 015E
ENCODING 350
SWIDTH 565 0
DWIDTH 11 0
BBX 0 0 0 0
BITMAP
ENDCHAR
STARTCHAR 015F
ENCODING 351
SWIDTH 360 0
DWIDTH 7 0
BBX 0 0 0 0
BITMAP
ENDCHAR
STARTCHAR 0160
ENCODING 352
SWIDTH 565 0
DWIDTH 11 0
BBX 12 21 0 0
BITMAP
C000
6000
1200
0700
0900
0080
0000
7FE0
3020
2000
2000
2000
2040
3FC0
2000
2000
2000
2000
2010
3030
7FE0
ENDCHAR
STARTCHAR 0161
ENCODING 353
SWIDTH 617 0
DWIDTH 12 0
BBX 13 19 0 0
BITMAP
0080
0180
0200
0400
0000
F078
6030
6020
3060
1840
1880
0D00
0700
0600
0200
0200
0200
0600
0F00
ENDCHAR
STARTCHAR 0178
ENCODING 376
SWIDTH 720 0
DWIDTH 14 0
BBX 13 21 1 0
BITMAP
0700
0100
0100
0200
0038
0010
0030
1FC0
3060
6030
C018
C018
C018
C018
C018
C018
C018
C018
6030
3060
1FC0
ENDCHAR
STARTCHAR 017D
ENCODING 381
SWIDTH 514 0
DWIDTH 10 0
BBX 0 0 0 0
BITMAP
ENDCHAR
STARTCHAR 017E
ENCODING 382
SWIDTH 360 0
DWIDTH 7 0
BBX 0 0 0 0
BITMAP
ENDCHAR
STARTCHAR 0192
ENCODING 402
SWIDTH 617 0
DWIDTH 12 0
BBX 13 21 0 0
BITMAP
0018
0030
0260
0700
0900
0080
0000
0200
0700
0F00
0980
0980
10C0
10C0
3040
3FE0
2060
6020
4030
4030
E078
ENDCHAR
STARTCHAR 02C6
ENCODING 710
SWIDTH 617 0
DWIDTH 12 0
BBX 13 18 0 0
BITMAP
0080
0F00
0600
0000
0200
0700
0F00
0980
0980
10C0
10C0
3040
3FE0
2060
6020
4030
4030
E078
ENDCHAR
STARTCHAR 02C7
ENCODING 711
SWIDTH 462 0
DWIDTH 9 0
BBX 0 0 0 0
BITMAP
ENDCHAR
STARTCHAR 02DA
ENCODING 730
SWIDTH 462 0
DWIDTH 9 0
BBX 0 0 0 0
BITMAP
ENDCHAR
STARTCHAR 02DB
ENCODING 731
SWIDTH 462 0
DWIDTH 9 0
BBX 0 0 0 0
BITMAP
ENDCHAR
STARTCHAR 02DC
ENCODING 732
SWIDTH 720 0
DWIDTH 14 0
BBX 13 22 1 0
BITMAP
0060
0020
0020
0240
0740
0980
0000
0000
1FC0
3060
6030
C018
C018
C018
C018
C018
C018
C018
C018
6030
3060
1FC0
ENDCHAR
STARTCHAR 03A9
ENCODING 937
SWIDTH 720 0
DWIDTH 14 0
BBX 0 0 0 0
BITMAP
ENDCHAR
STARTCHAR 03C0
ENCODING 960
SWIDTH 617 0
DWIDTH 12 0
BBX 0 0 0 0
BITMAP
ENDCHAR
STARTCHAR 2013
ENCODING 8211
SWIDTH 720 0
DWIDTH 14 0
BBX 13 21 1 0
BITMAP
0018
0030
0260
0700
0980
0000
0000
1FC0
3060
6030
C018
C018
C018
C018
C018
C018
C018
C018
6030
3060
1FC0
ENDCHAR
STARTCHAR 2014
ENCODING 8212
SWIDTH 720 0
DWIDTH 14 0
BBX 13 21 1 0
BITMAP
C000
6000
1200
0700
0980
0000
0000
1FC0
3060
6030
C018
C018
C018
C018
C018
C018
C018
C018
6030
3060
1FC0
ENDCHAR
STARTCHAR 2018
ENCODING 8216
SWIDTH 257 0
DWIDTH 5 0
BBX 2 5 2 9
BITMAP
80
80
80
C0
C0
ENDCHAR
STARTCHAR 2019
ENCODING 8217
SWIDTH 257 0
DWIDTH 5 0
BBX 2 5 1 9
BITMAP
C0
C0
40
40
80
ENDCHAR
STARTCHAR 201A
ENCODING 8218
SWIDTH 617 0
DWIDTH 12 0
BBX 13 18 0 0
BITMAP
0E80
1300
0000
0000
0200
0700
0F00
0980
0980
10C0
10C0
3040
3FE0
2060
6020
4030
4030
E078
ENDCHAR
STARTCHAR 201C
ENCODING 8220
SWIDTH 565 0
DWIDTH 11 0
BBX 12 21 0 0
BITMAP
C000
6000
1200
0700
0900
0080
0000
7FE0
3020
2000
2000
2000
2040
3FC0
2000
2000
2000
2000
2010
3030
7FE0
ENDCHAR
STARTCHAR 201D
ENCODING 8221
SWIDTH 565 0
DWIDTH 11 0
BBX 11 22 1 0
BITMAP
01C0
0040
0040
0480
0E00
1200
0100
0000
FFC0
6040
4000
4000
4000
4080
7F80
4000
4000
4000
4000
4020
6060
FFC0
ENDCHAR
STARTCHAR 201E
ENCODING 8222
SWIDTH 617 0
DWIDTH 12 0
BBX 13 21 0 0
BITMAP
C000
6000
1200
0700
0900
0080
0000
0200
0700
0F00
0980
0980
10C0
10C0
3040
3FE0
2060
6020
4030
4030
E078
ENDCHAR
STARTCHAR 2020
ENCODING 8224
SWIDTH 720 0
DWIDTH 14 0
BBX 13 17 1 -3
BITMAP
1FC0
3060
6030
C018
C018
C018
C018
C018
C018
C018
C018
6030
3060
1FC0
0000
0200
0300
ENDCHAR
STARTCHAR 2021
ENCODING 8225
SWIDTH 720 0
DWIDTH 14 0
BBX 13 21 1 0
BITMAP
0780
0B00
0200
0700
0980
0000
0000
1FC0
3060
6030
C018
C018
C018
C018
C018
C018
C018
C018
6030
3060
1FC0
ENDCHAR
STARTCHAR 2022
ENCODING 8226
SWIDTH 565 0
DWIDTH 11 0
BBX 11 21 1 0
BITMAP
1D00
2600
0400
0E00
1200
0100
0000
FFC0
6040
4000
4000
4000
4080
7F80
4000
4000
4000
4000
4020
6060
FFC0
ENDCHAR
STARTCHAR 2026
ENCODING 8230
SWIDTH 617 0
DWIDTH 12 0
BBX 13 22 0 0
BITMAP
00E0
0020
0020
02C0
0700
0900
0080
0000
0200
0700
0F00
0980
0980
10C0
10C0
3040
3FE0
2060
6020
4030
4030
E078
ENDCHAR
STARTCHAR 2030
ENCODING 8240
SWIDTH 565 0
DWIDTH 11 0
BBX 12 21 1 0
BITMAP
0030
0060
0480
0E00
1200
0100
0000
FFC0
6040
4000
4000
4000
4080
7F80
4000
4000
4000
4000
4020
6060
FFC0
ENDCHAR
STARTCHAR 2039
ENCODING 8249
SWIDTH 565 0
DWIDTH 11 0
BBX 11 22 1 0
BITMAP
01C0
0040
0040
0480
0E00
1200
0100
0000
FFC0
6040
4000
4000
4000
4080
7F80
4000
4000
4000
4000
4020
6060
FFC0
ENDCHAR
STARTCHAR 203A
ENCODING 8250
SWIDTH 617 0
DWIDTH 12 0
BBX 13 20 0 0
BITMAP
0200
0500
0100
0200
0000
0000
F078
6030
6020
3060
1840
1880
0D00
0700
0600
0200
0200
0200
0600
0F00
ENDCHAR
STARTCHAR 20A3
ENCODING 8355
SWIDTH 874 0
DWIDTH 17 0
BBX 0 0 0 0
BITMAP
ENDCHAR
STARTCHAR 2122
ENCODING 8482
SWIDTH 720 0
DWIDTH 14 0
BBX 13 21 1 0
BITMAP
0780
0B00
0200
0700
0980
0000
0000
1FC0
3060
6030
C018
C018
C018
C018
C018
C018
C018
C018
6030
3060
1FC0
ENDCHAR
STARTCHAR 2202
ENCODING 8706
SWIDTH 462 0
DWIDTH 9 0
BBX 0 0 0 0
BITMAP
ENDCHAR
STARTCHAR 2206
ENCODING 8710
SWIDTH 565 0
DWIDTH 11 0
BBX 0 0 0 0
BITMAP
ENDCHAR
STARTCHAR 220F
ENCODING 8719
SWIDTH 771 0
DWIDTH 15 0
BBX 0 0 0 0
BITMAP
ENDCHAR
STARTCHAR 2211
ENCODING 8721
SWIDTH 668 0
DWIDTH 13 0
BBX 0 0 0 0
BITMAP
ENDCHAR
STARTCHAR 2212
ENCODING 8722
SWIDTH 822 0
DWIDTH 16 0
BBX 0 0 0 0
BITMAP
ENDCHAR
STARTCHAR 2215
ENCODING 8725
SWIDTH 154 0
DWIDTH 3 0
BBX 0 0 0 0
BITMAP
ENDCHAR
STARTCHAR 2219
ENCODING 8729
SWIDTH 257 0
DWIDTH 5 0
BBX 4 20 1 0
BITMAP
E0
20
20
40
00
00
F0
60
60
60
60
60
60
60
60
60
60
60
60
F0
ENDCHAR
STARTCHAR 221A
ENCODING 8730
SWIDTH 617 0
DWIDTH 12 0
BBX 0 0 0 0
BITMAP
ENDCHAR
STARTCHAR 221E
ENCODING 8734
SWIDTH 822 0
DWIDTH 16 0
BBX 0 0 0 0
BITMAP
ENDCHAR
STARTCHAR 222B
ENCODING 8747
SWIDTH 462 0
DWIDTH 9 0
BBX 0 0 0 0
BITMAP
ENDCHAR
STARTCHAR 2248
ENCODING 8776
SWIDTH 822 0
DWIDTH 16 0
BBX 0 0 0 0
BITMAP
ENDCHAR
STARTCHAR 2260
ENCODING 8800
SWIDTH 822 0
DWIDTH 16 0
BBX 0 0 0 0
BITMAP
ENDCHAR
STARTCHAR 2264
ENCODING 8804
SWIDTH 822 0
DWIDTH 16 0
BBX 0 0 0 0
BITMAP
ENDCHAR
STARTCHAR 2265
ENCODING 8805
SWIDTH 822 0
DWIDTH 16 0
BBX 0 0 0 0
BITMAP
ENDCHAR
STARTCHAR 25CA
ENCODING 9674
SWIDTH 462 0
DWIDTH 9 0
BBX 0 0 0 0
BITMAP
ENDCHAR
STARTCHAR F000
ENCODING 61440
SWIDTH 771 0
DWIDTH 15 0
BBX 0 0 0 0
BITMAP
ENDCHAR
STARTCHAR F001
ENCODING 61441
SWIDTH 514 0
DWIDTH 10 0
BBX 0 0 0 0
BITMAP
ENDCHAR
STARTCHAR F002
ENCODING 61442
SWIDTH 514 0
DWIDTH 10 0
BBX 0 0 0 0
BITMAP
ENDCHAR
ENDFONT
